<svg width="252" height="119" viewBox="0 0 252 119" fill="none" xmlns="http://www.w3.org/2000/svg">
<path opacity="0.1" d="M460.169 103.103C410.779 99.9686 364.143 81.5999 319.672 61.6681C275.202 41.7362 231.205 19.807 183.249 8.60968C152.38 1.40546 116.915 -0.432565 91.4378 16.7813C66.8866 33.3775 58.334 62.8253 53.4575 90.2526C49.7676 110.895 47.348 132.655 55.4565 152.277C61.0849 165.904 71.414 177.499 78.4247 190.589C91.4378 253.5 83.2934 291.026 54.4402 334.125C40.9161 354.341 25.3238 373.556 14.7211 395.179C4.11839 416.802 -1.19789 441.757 6.97138 464.314C15.0843 486.687 35.3734 503.831 57.5184 516.072C102.492 541.007 156.022 549.217 208.331 554.407C324.079 565.966 440.772 565.331 557.153 564.68C600.218 564.44 643.482 564.182 686.003 558.12C709.619 554.765 734.052 549.101 751.515 534.344C773.691 515.615 779.917 483.072 766.03 458.493C742.74 417.261 691.474 398.511 675.573 354.5C666.836 330.277 690.159 288.88 704.361 267C734.813 220.054 756.085 201.319 760.087 146.849C762.839 109.478 740.287 71.3221 704.361 52.6455C666.7 33.0677 613.748 34.0194 584.817 64.0339C555.019 95.0649 503.773 105.881 460.169 103.103Z" fill="#175CAE"/>
</svg>
