<svg width="786" height="575" viewBox="0 0 786 575" fill="none" xmlns="http://www.w3.org/2000/svg">
<path opacity="0.1" d="M602.97 449.871C598.803 452.023 594.436 453.882 590.128 455.735C574.213 462.466 558.057 469.256 540.959 471.566C508.848 475.846 475.711 464.119 444.162 471.437C417.734 477.546 395.877 496.268 370.058 504.606C358.052 508.481 345.561 510 332.959 510H331.331C329.771 509.98 328.221 509.941 326.684 509.883C313.906 509.402 301.075 507.508 288.549 505.087C248.997 497.464 208.744 483.492 178.505 457.769C266.552 441.657 447.92 416.925 602.97 449.871Z" fill="#252223"/>
<path opacity="0.3" d="M633.66 256.997V219.472H611.417V256.997H585.076V198.95H565.76V155.561H549.956V111H517.177V155.561H501.373V198.95H482.642V146.766H472.106V120.381H465.667V146.766H428.205V313.285H399.524V295.695H381.963V313.285H353.282V256.997H301.772V219.472H279.529V256.997H278.358V329.116H254.945V286.9H226.848V329.116H203.435V198.95H185.289V155.561H118.56V198.95H101V428.206H203.435H278.358H353.282H428.205H482.642H585.076H660V256.997H633.66Z" fill="#175CAE"/>
<path opacity="0.4" d="M136.706 212.436H112.121V226.508H136.706V212.436Z" fill="white"/>
<path opacity="0.4" d="M167.143 226.508H191.728V212.436H167.143V226.508Z" fill="white"/>
<path opacity="0.4" d="M136.706 239.993H112.121V254.065H136.706V239.993Z" fill="white"/>
<path opacity="0.4" d="M167.143 254.065H191.728V239.993H167.143V254.065Z" fill="white"/>
<path opacity="0.4" d="M136.706 267.551H112.121V281.623H136.706V267.551Z" fill="white"/>
<path opacity="0.4" d="M167.143 281.623H191.728V267.551H167.143V281.623Z" fill="white"/>
<path opacity="0.4" d="M136.706 295.109H112.121V309.181H136.706V295.109Z" fill="white"/>
<path opacity="0.4" d="M167.143 309.181H191.728V295.109H167.143V309.181Z" fill="white"/>
<path opacity="0.4" d="M136.706 322.666H112.121V336.738H136.706V322.666Z" fill="white"/>
<path opacity="0.4" d="M167.143 336.738H191.728V322.666H167.143V336.738Z" fill="white"/>
<path opacity="0.4" d="M136.706 350.224H112.121V364.296H136.706V350.224Z" fill="white"/>
<path opacity="0.4" d="M167.143 364.296H191.728V350.224H167.143V364.296Z" fill="white"/>
<path opacity="0.4" d="M136.706 377.782H112.121V391.854H136.706V377.782Z" fill="white"/>
<path opacity="0.4" d="M167.143 391.854H191.728V377.782H167.143V391.854Z" fill="white"/>
<path opacity="0.4" d="M269.578 343.188H212.215V350.224H269.578V343.188Z" fill="white"/>
<path opacity="0.4" d="M269.578 353.742H212.215V360.778H269.578V353.742Z" fill="white"/>
<path opacity="0.4" d="M269.578 364.296H212.215V371.332H269.578V364.296Z" fill="white"/>
<path opacity="0.4" d="M419.425 346.706H362.062V353.742H419.425V346.706Z" fill="white"/>
<path opacity="0.4" d="M419.425 357.26H362.062V364.296H419.425V357.26Z" fill="white"/>
<path opacity="0.4" d="M419.425 367.814H362.062V374.85H419.425V367.814Z" fill="white"/>
<path opacity="0.4" d="M269.578 374.85H212.215V381.886H269.578V374.85Z" fill="white"/>
<path opacity="0.4" d="M269.578 385.404H212.215V392.44H269.578V385.404Z" fill="white"/>
<path opacity="0.4" d="M269.578 395.958H212.215V402.994H269.578V395.958Z" fill="white"/>
<path opacity="0.4" d="M306.454 270.483H290.65V291.004H306.454V270.483Z" fill="white"/>
<path opacity="0.4" d="M325.185 291.004H340.99V270.483H325.185V291.004Z" fill="white"/>
<path opacity="0.4" d="M306.454 303.317H290.65V323.839H306.454V303.317Z" fill="white"/>
<path opacity="0.4" d="M325.185 323.839H340.99V303.317H325.185V323.839Z" fill="white"/>
<path opacity="0.4" d="M306.454 336.152H290.65V356.674H306.454V336.152Z" fill="white"/>
<path opacity="0.4" d="M325.185 356.674H340.99V336.152H325.185V356.674Z" fill="white"/>
<path opacity="0.4" d="M306.454 368.987H290.65V389.508H306.454V368.987Z" fill="white"/>
<path opacity="0.4" d="M325.185 389.508H340.99V368.987H325.185V389.508Z" fill="white"/>
<path opacity="0.4" d="M449.277 160.252H428.205V187.223H449.277V160.252Z" fill="white"/>
<path opacity="0.4" d="M449.277 198.95H428.205V225.921H449.277V198.95Z" fill="white"/>
<path opacity="0.4" d="M449.277 237.648H428.205V264.619H449.277V237.648Z" fill="white"/>
<path opacity="0.4" d="M449.277 276.346H428.205V303.317H449.277V276.346Z" fill="white"/>
<path opacity="0.4" d="M449.277 315.044H428.205V342.015H449.277V315.044Z" fill="white"/>
<path opacity="0.4" d="M449.277 353.742H428.205V380.713H449.277V353.742Z" fill="white"/>
<path opacity="0.4" d="M573.077 215.367H494.641V238.234H573.077V215.367Z" fill="white"/>
<path opacity="0.4" d="M573.37 264.619H494.934V287.486H573.37V264.619Z" fill="white"/>
<path opacity="0.4" d="M573.662 313.871H495.227V336.738H573.662V313.871Z" fill="white"/>
<path opacity="0.4" d="M573.955 363.123H495.519V385.99H573.955V363.123Z" fill="white"/>
<path opacity="0.4" d="M129.096 167.874H118.56V190.155H129.096V167.874Z" fill="white"/>
<path opacity="0.4" d="M660 270.483H633.66V304.49H660V270.483Z" fill="white"/>
<path opacity="0.4" d="M660 319.735H633.66V353.742H660V319.735Z" fill="white"/>
<path opacity="0.4" d="M660 368.987H633.66V402.994H660V368.987Z" fill="white"/>
<path d="M130.074 392.176C130.074 392.176 83.99 420.027 168.94 462.906C168.94 462.906 187.671 428.101 166.962 399.722C162.946 394.191 157.043 390.327 150.373 388.863C143.703 387.398 136.728 388.436 130.77 391.778L130.074 392.176Z" fill="#175CAE"/>
<path d="M130.607 391.59C130.607 391.59 170.041 421.815 168.94 462.906" stroke="#535461" stroke-miterlimit="10"/>
<path d="M171.083 464.489C171.083 464.489 156.642 415.377 173.793 379.23C180.993 364.062 183.381 347.029 180.056 330.564C178.466 322.747 176.164 315.093 173.178 307.697" stroke="#535461" stroke-width="2" stroke-miterlimit="10"/>
<path d="M183.826 284.883C183.826 290.905 172.944 308.336 172.944 308.336C172.944 308.336 162.063 290.881 162.063 284.883C162.029 283.431 162.286 281.986 162.817 280.635C163.349 279.283 164.145 278.052 165.158 277.013C166.172 275.974 167.382 275.148 168.719 274.584C170.055 274.021 171.491 273.73 172.941 273.73C174.391 273.73 175.827 274.021 177.164 274.584C178.5 275.148 179.711 275.974 180.724 277.013C181.738 278.052 182.534 279.283 183.065 280.635C183.597 281.986 183.853 283.431 183.82 284.883H183.826Z" fill="#175CAE"/>
<path d="M201.831 318.222C198.565 323.276 179.962 332.001 179.962 332.001C179.962 332.001 180.302 311.426 183.568 306.372C185.17 304.025 187.625 302.398 190.408 301.838C193.191 301.278 196.082 301.829 198.465 303.374C200.847 304.92 202.533 307.337 203.162 310.109C203.791 312.882 203.313 315.791 201.831 318.216V318.222Z" fill="#175CAE"/>
<path d="M201.041 375.196C195.673 377.905 175.221 376.034 175.221 376.034C175.221 376.034 185.88 358.445 191.248 355.736C193.816 354.502 196.765 354.326 199.461 355.246C202.158 356.165 204.386 358.107 205.669 360.655C206.952 363.203 207.186 366.152 206.322 368.871C205.458 371.59 203.564 373.861 201.046 375.196H201.041Z" fill="#175CAE"/>
<path d="M190.756 418.168C185.927 421.745 165.446 423.363 165.446 423.363C165.446 423.363 172.985 404.225 177.814 400.643C178.962 399.778 180.269 399.15 181.661 398.793C183.053 398.437 184.501 398.36 185.922 398.568C187.343 398.775 188.71 399.262 189.942 400.001C191.175 400.739 192.249 401.715 193.103 402.872C193.957 404.028 194.574 405.343 194.919 406.74C195.263 408.137 195.328 409.588 195.11 411.01C194.892 412.432 194.395 413.797 193.648 415.025C192.9 416.254 191.918 417.322 190.756 418.168Z" fill="#175CAE"/>
<path d="M157.117 333.168C161.425 337.36 181.508 341.705 181.508 341.705C181.508 341.705 176.591 321.728 172.283 317.53C171.267 316.493 170.054 315.67 168.715 315.109C167.377 314.548 165.94 314.261 164.489 314.265C163.038 314.269 161.603 314.563 160.267 315.13C158.931 315.698 157.723 316.527 156.712 317.57C155.701 318.612 154.908 319.846 154.38 321.2C153.853 322.554 153.6 324 153.639 325.452C153.677 326.905 154.005 328.336 154.603 329.66C155.201 330.984 156.058 332.174 157.122 333.162L157.117 333.168Z" fill="#175CAE"/>
<path d="M145.726 383.575C151.093 386.284 171.545 384.413 171.545 384.413C171.545 384.413 160.886 366.823 155.519 364.114C152.95 362.88 150.001 362.705 147.305 363.624C144.609 364.544 142.38 366.486 141.097 369.034C139.814 371.581 139.58 374.531 140.444 377.25C141.309 379.969 143.203 382.239 145.72 383.575H145.726Z" fill="#175CAE"/>
<path d="M141.365 434.093C146.194 437.67 166.675 439.288 166.675 439.288C166.675 439.288 159.136 420.144 154.301 416.568C151.979 414.876 149.085 414.172 146.247 414.609C143.409 415.046 140.859 416.588 139.152 418.9C137.445 421.212 136.719 424.106 137.132 426.952C137.545 429.798 139.065 432.365 141.359 434.093H141.365Z" fill="#175CAE"/>
<path opacity="0.25" d="M183.826 284.883C183.826 290.905 172.944 308.336 172.944 308.336C172.944 308.336 162.063 290.881 162.063 284.883C162.029 283.431 162.286 281.986 162.817 280.635C163.349 279.283 164.145 278.052 165.158 277.013C166.172 275.974 167.382 275.148 168.719 274.584C170.055 274.021 171.491 273.73 172.941 273.73C174.391 273.73 175.827 274.021 177.164 274.584C178.5 275.148 179.711 275.974 180.724 277.013C181.738 278.052 182.534 279.283 183.065 280.635C183.597 281.986 183.853 283.431 183.82 284.883H183.826Z" fill="black"/>
<path opacity="0.25" d="M201.831 318.222C198.565 323.276 179.962 332.001 179.962 332.001C179.962 332.001 180.302 311.426 183.568 306.372C185.17 304.025 187.625 302.398 190.408 301.838C193.191 301.278 196.082 301.829 198.465 303.374C200.847 304.92 202.533 307.337 203.162 310.109C203.791 312.882 203.313 315.791 201.831 318.216V318.222Z" fill="black"/>
<path opacity="0.25" d="M201.041 375.196C195.673 377.905 175.221 376.034 175.221 376.034C175.221 376.034 185.88 358.445 191.248 355.736C193.816 354.502 196.765 354.326 199.461 355.246C202.158 356.165 204.386 358.107 205.669 360.655C206.952 363.203 207.186 366.152 206.322 368.871C205.458 371.59 203.564 373.861 201.046 375.196H201.041Z" fill="black"/>
<path opacity="0.25" d="M190.756 418.168C185.927 421.745 165.446 423.363 165.446 423.363C165.446 423.363 172.985 404.225 177.814 400.643C178.962 399.778 180.269 399.15 181.661 398.793C183.053 398.437 184.501 398.36 185.922 398.568C187.343 398.775 188.71 399.262 189.942 400.001C191.175 400.739 192.249 401.715 193.103 402.872C193.957 404.028 194.574 405.343 194.919 406.74C195.263 408.137 195.328 409.588 195.11 411.01C194.892 412.432 194.395 413.797 193.648 415.025C192.9 416.254 191.918 417.322 190.756 418.168Z" fill="black"/>
<path opacity="0.25" d="M157.117 333.168C161.425 337.36 181.508 341.705 181.508 341.705C181.508 341.705 176.591 321.728 172.283 317.53C171.267 316.493 170.054 315.67 168.715 315.109C167.377 314.548 165.94 314.261 164.489 314.265C163.038 314.269 161.603 314.563 160.267 315.13C158.931 315.698 157.723 316.527 156.712 317.57C155.701 318.612 154.908 319.846 154.38 321.2C153.853 322.554 153.6 324 153.639 325.452C153.677 326.905 154.005 328.336 154.603 329.66C155.201 330.984 156.058 332.174 157.122 333.162L157.117 333.168Z" fill="black"/>
<path opacity="0.25" d="M145.726 383.575C151.093 386.284 171.545 384.413 171.545 384.413C171.545 384.413 160.886 366.823 155.519 364.114C152.95 362.88 150.001 362.705 147.305 363.624C144.609 364.544 142.38 366.486 141.097 369.034C139.814 371.581 139.58 374.531 140.444 377.25C141.309 379.969 143.203 382.239 145.72 383.575H145.726Z" fill="black"/>
<path opacity="0.25" d="M141.365 434.093C146.194 437.67 166.675 439.288 166.675 439.288C166.675 439.288 159.136 420.144 154.301 416.568C151.979 414.876 149.085 414.172 146.247 414.609C143.409 415.046 140.859 416.588 139.152 418.9C137.445 421.212 136.719 424.106 137.132 426.952C137.545 429.798 139.065 432.365 141.359 434.093H141.365Z" fill="black"/>
<path d="M621.824 451.806C621.824 451.806 607.384 402.695 624.534 366.548C631.734 351.379 634.122 334.346 630.797 317.882C629.208 310.065 626.905 302.411 623.92 295.015" stroke="#535461" stroke-width="2" stroke-miterlimit="10"/>
<path d="M634.59 272.201C634.59 278.222 623.709 295.654 623.709 295.654C623.709 295.654 612.827 278.199 612.827 272.201C612.794 270.748 613.05 269.304 613.582 267.952C614.113 266.601 614.909 265.369 615.923 264.33C616.936 263.291 618.147 262.466 619.484 261.902C620.82 261.338 622.256 261.048 623.706 261.048C625.156 261.048 626.592 261.338 627.928 261.902C629.265 262.466 630.476 263.291 631.489 264.33C632.503 265.369 633.298 266.601 633.83 267.952C634.362 269.304 634.618 270.748 634.585 272.201H634.59Z" fill="#175CAE"/>
<path d="M652.572 305.54C649.306 310.594 630.704 319.318 630.704 319.318C630.704 319.318 631.043 298.744 634.309 293.69C635.068 292.449 636.066 291.374 637.246 290.526C638.426 289.678 639.763 289.075 641.179 288.753C642.595 288.431 644.061 288.396 645.49 288.65C646.92 288.904 648.284 289.442 649.503 290.232C650.722 291.023 651.771 292.049 652.587 293.252C653.404 294.455 653.972 295.809 654.258 297.235C654.544 298.661 654.542 300.13 654.252 301.555C653.963 302.98 653.392 304.333 652.572 305.534V305.54Z" fill="#175CAE"/>
<path d="M651.788 362.514C646.42 365.223 625.968 363.352 625.968 363.352C625.968 363.352 636.627 345.762 641.995 343.053C644.563 341.819 647.512 341.643 650.208 342.563C652.905 343.483 655.134 345.425 656.416 347.973C657.699 350.52 657.933 353.47 657.069 356.189C656.205 358.907 654.311 361.178 651.794 362.514H651.788Z" fill="#175CAE"/>
<path d="M641.503 405.486C636.674 409.063 616.193 410.681 616.193 410.681C616.193 410.681 623.732 391.543 628.561 387.961C630.883 386.269 633.778 385.565 636.615 386.002C639.453 386.439 642.003 387.981 643.711 390.293C645.418 392.605 646.144 395.499 645.73 398.345C645.317 401.191 643.798 403.757 641.503 405.486Z" fill="#175CAE"/>
<path d="M607.858 320.468C612.166 324.66 632.249 329.005 632.249 329.005C632.249 329.005 627.332 309.028 623.024 304.83C620.954 302.816 618.17 301.707 615.284 301.749C612.398 301.791 609.647 302.979 607.635 305.053C605.624 307.127 604.518 309.916 604.56 312.806C604.601 315.697 605.788 318.453 607.858 320.468Z" fill="#175CAE"/>
<path d="M596.491 370.892C601.858 373.601 622.31 371.731 622.31 371.731C622.31 371.731 611.651 354.141 606.283 351.432C603.717 350.217 600.779 350.054 598.095 350.978C595.411 351.903 593.193 353.841 591.916 356.38C590.638 358.919 590.401 361.857 591.256 364.568C592.111 367.279 593.989 369.549 596.491 370.892Z" fill="#175CAE"/>
<path d="M592.106 421.411C596.935 424.988 617.416 426.606 617.416 426.606C617.416 426.606 609.877 407.468 605.048 403.885C602.727 402.194 599.832 401.49 596.994 401.926C594.157 402.363 591.606 403.906 589.899 406.218C588.192 408.53 587.466 411.424 587.879 414.27C588.293 417.115 589.812 419.682 592.106 421.411Z" fill="#175CAE"/>
<path d="M556.687 447.028C556.687 447.028 548.926 420.643 558.145 401.212C562.062 393.089 563.243 383.913 561.511 375.061C560.656 370.866 559.42 366.758 557.817 362.789" stroke="#535461" stroke-width="2" stroke-miterlimit="10"/>
<path d="M563.548 350.506C563.548 353.742 557.694 363.118 557.694 363.118C557.694 363.118 551.841 353.736 551.841 350.506C551.841 348.95 552.458 347.459 553.555 346.36C554.653 345.26 556.142 344.642 557.694 344.642C559.247 344.642 560.735 345.26 561.833 346.36C562.931 347.459 563.548 348.95 563.548 350.506Z" fill="#175CAE"/>
<path d="M573.212 368.424C571.456 371.139 561.458 375.829 561.458 375.829C561.458 375.829 561.639 364.771 563.395 362.056C563.795 361.372 564.328 360.776 564.964 360.305C565.6 359.833 566.324 359.495 567.094 359.312C567.864 359.129 568.662 359.104 569.442 359.238C570.222 359.373 570.966 359.664 571.63 360.095C572.294 360.526 572.864 361.087 573.305 361.744C573.747 362.402 574.051 363.142 574.199 363.921C574.346 364.699 574.335 365.499 574.165 366.273C573.996 367.047 573.671 367.779 573.212 368.424Z" fill="#175CAE"/>
<path d="M572.79 399.036C569.904 400.491 558.912 399.488 558.912 399.488C558.912 399.488 564.642 390.036 567.522 388.582C568.897 387.96 570.459 387.893 571.882 388.397C573.305 388.9 574.479 389.935 575.158 391.284C575.838 392.634 575.971 394.194 575.53 395.64C575.089 397.085 574.107 398.304 572.79 399.042V399.036Z" fill="#175CAE"/>
<path d="M567.259 422.132C564.66 424.055 553.655 424.923 553.655 424.923C553.655 424.923 557.706 414.639 560.305 412.716C561.555 411.88 563.079 411.558 564.56 411.817C566.041 412.076 567.365 412.895 568.259 414.106C569.153 415.317 569.548 416.825 569.362 418.32C569.175 419.814 568.422 421.179 567.259 422.132Z" fill="#175CAE"/>
<path d="M549.183 376.457C551.525 378.708 562.289 381.048 562.289 381.048C562.289 381.048 559.649 370.312 557.331 368.06C556.79 367.482 556.137 367.019 555.412 366.7C554.687 366.381 553.904 366.213 553.113 366.206C552.321 366.199 551.536 366.353 550.805 366.658C550.074 366.964 549.413 367.415 548.861 367.984C548.309 368.553 547.879 369.228 547.595 369.969C547.311 370.709 547.181 371.5 547.211 372.292C547.241 373.085 547.431 373.863 547.77 374.58C548.109 375.297 548.59 375.937 549.183 376.462V376.457Z" fill="#175CAE"/>
<path d="M543.061 403.545C545.946 404.999 556.939 403.997 556.939 403.997C556.939 403.997 551.209 394.545 548.329 393.091C546.954 392.469 545.392 392.402 543.969 392.906C542.546 393.409 541.372 394.444 540.693 395.793C540.013 397.143 539.88 398.703 540.321 400.149C540.762 401.594 541.744 402.813 543.061 403.551V403.545Z" fill="#175CAE"/>
<path d="M540.719 430.698C543.318 432.622 554.323 433.489 554.323 433.489C554.323 433.489 550.249 423.199 547.673 421.276C546.422 420.424 544.891 420.09 543.4 420.344C541.909 420.598 540.574 421.421 539.675 422.639C538.776 423.857 538.382 425.377 538.577 426.879C538.772 428.382 539.539 429.75 540.719 430.698Z" fill="#175CAE"/>
<path opacity="0.1" d="M255.928 138.956H251.901C252.282 138.974 252.662 138.914 253.019 138.78C253.376 138.646 253.703 138.44 253.978 138.177C254.254 137.913 254.473 137.596 254.623 137.244C254.773 136.893 254.851 136.515 254.851 136.133C254.851 135.751 254.773 135.373 254.623 135.022C254.473 134.671 254.254 134.354 253.978 134.09C253.703 133.826 253.376 133.621 253.019 133.487C252.662 133.353 252.282 133.293 251.901 133.31H219.28C218.554 133.343 217.87 133.655 217.368 134.181C216.867 134.707 216.587 135.406 216.587 136.133C216.587 136.86 216.867 137.56 217.368 138.086C217.87 138.611 218.554 138.923 219.28 138.956H223.307C222.926 138.939 222.545 138.999 222.188 139.133C221.831 139.267 221.505 139.472 221.229 139.736C220.954 140 220.734 140.317 220.584 140.668C220.434 141.02 220.357 141.398 220.357 141.78C220.357 142.162 220.434 142.54 220.584 142.891C220.734 143.242 220.954 143.559 221.229 143.823C221.505 144.087 221.831 144.292 222.188 144.426C222.545 144.56 222.926 144.62 223.307 144.603H217.67C217.289 144.585 216.909 144.646 216.552 144.78C216.194 144.914 215.868 145.119 215.593 145.383C215.317 145.646 215.097 145.964 214.947 146.315C214.798 146.666 214.72 147.044 214.72 147.426C214.72 147.808 214.798 148.186 214.947 148.537C215.097 148.888 215.317 149.205 215.593 149.469C215.868 149.733 216.194 149.938 216.552 150.072C216.909 150.206 217.289 150.267 217.67 150.249H250.291C250.672 150.267 251.052 150.206 251.41 150.072C251.767 149.938 252.093 149.733 252.369 149.469C252.644 149.205 252.864 148.888 253.014 148.537C253.164 148.186 253.241 147.808 253.241 147.426C253.241 147.044 253.164 146.666 253.014 146.315C252.864 145.964 252.644 145.646 252.369 145.383C252.093 145.119 251.767 144.914 251.41 144.78C251.052 144.646 250.672 144.585 250.291 144.603H255.928C256.309 144.62 256.689 144.56 257.046 144.426C257.403 144.292 257.73 144.087 258.005 143.823C258.281 143.559 258.501 143.242 258.65 142.891C258.8 142.54 258.878 142.162 258.878 141.78C258.878 141.398 258.8 141.02 258.65 140.668C258.501 140.317 258.281 140 258.005 139.736C257.73 139.472 257.403 139.267 257.046 139.133C256.689 138.999 256.309 138.939 255.928 138.956Z" fill="#252223"/>
<path opacity="0.1" d="M399.922 209.903H395.894C396.275 209.92 396.656 209.86 397.013 209.726C397.37 209.592 397.696 209.387 397.972 209.123C398.248 208.859 398.467 208.542 398.617 208.191C398.767 207.84 398.844 207.462 398.844 207.08C398.844 206.698 398.767 206.32 398.617 205.968C398.467 205.617 398.248 205.3 397.972 205.036C397.696 204.772 397.37 204.567 397.013 204.433C396.656 204.299 396.275 204.239 395.894 204.256H363.273C362.548 204.289 361.864 204.601 361.362 205.127C360.86 205.653 360.581 206.352 360.581 207.08C360.581 207.807 360.86 208.506 361.362 209.032C361.864 209.558 362.548 209.87 363.273 209.903H367.301C366.92 209.885 366.539 209.945 366.182 210.08C365.825 210.214 365.499 210.419 365.223 210.683C364.947 210.946 364.728 211.264 364.578 211.615C364.428 211.966 364.351 212.344 364.351 212.726C364.351 213.108 364.428 213.486 364.578 213.837C364.728 214.188 364.947 214.505 365.223 214.769C365.499 215.033 365.825 215.238 366.182 215.372C366.539 215.506 366.92 215.567 367.301 215.549H361.664C361.283 215.532 360.902 215.592 360.545 215.726C360.188 215.86 359.862 216.065 359.586 216.329C359.311 216.593 359.091 216.91 358.941 217.261C358.791 217.612 358.714 217.99 358.714 218.372C358.714 218.754 358.791 219.132 358.941 219.484C359.091 219.835 359.311 220.152 359.586 220.416C359.862 220.68 360.188 220.885 360.545 221.019C360.902 221.153 361.283 221.213 361.664 221.196H394.285C394.666 221.213 395.046 221.153 395.403 221.019C395.76 220.885 396.087 220.68 396.362 220.416C396.638 220.152 396.857 219.835 397.007 219.484C397.157 219.132 397.235 218.754 397.235 218.372C397.235 217.99 397.157 217.612 397.007 217.261C396.857 216.91 396.638 216.593 396.362 216.329C396.087 216.065 395.76 215.86 395.403 215.726C395.046 215.592 394.666 215.532 394.285 215.549H399.922C400.303 215.567 400.683 215.506 401.04 215.372C401.397 215.238 401.723 215.033 401.999 214.769C402.275 214.505 402.494 214.188 402.644 213.837C402.794 213.486 402.871 213.108 402.871 212.726C402.871 212.344 402.794 211.966 402.644 211.615C402.494 211.264 402.275 210.946 401.999 210.683C401.723 210.419 401.397 210.214 401.04 210.08C400.683 209.945 400.303 209.885 399.922 209.903Z" fill="#252223"/>
<path opacity="0.1" d="M645.179 117.262H641.152C641.533 117.279 641.913 117.219 642.271 117.085C642.628 116.951 642.954 116.746 643.23 116.482C643.505 116.218 643.725 115.901 643.875 115.55C644.025 115.199 644.102 114.821 644.102 114.439C644.102 114.057 644.025 113.679 643.875 113.328C643.725 112.976 643.505 112.659 643.23 112.395C642.954 112.132 642.628 111.926 642.271 111.792C641.913 111.658 641.533 111.598 641.152 111.616H608.531C607.806 111.649 607.121 111.961 606.62 112.487C606.118 113.012 605.838 113.712 605.838 114.439C605.838 115.166 606.118 115.865 606.62 116.391C607.121 116.917 607.806 117.229 608.531 117.262H612.558C612.177 117.245 611.797 117.305 611.44 117.439C611.083 117.573 610.756 117.778 610.481 118.042C610.205 118.306 609.986 118.623 609.836 118.974C609.686 119.325 609.608 119.703 609.608 120.085C609.608 120.467 609.686 120.845 609.836 121.196C609.986 121.548 610.205 121.865 610.481 122.129C610.756 122.392 611.083 122.598 611.44 122.732C611.797 122.866 612.177 122.926 612.558 122.908H606.921C606.54 122.891 606.16 122.951 605.803 123.085C605.446 123.219 605.12 123.424 604.844 123.688C604.568 123.952 604.349 124.269 604.199 124.62C604.049 124.972 603.972 125.35 603.972 125.732C603.972 126.114 604.049 126.492 604.199 126.843C604.349 127.194 604.568 127.511 604.844 127.775C605.12 128.039 605.446 128.244 605.803 128.378C606.16 128.512 606.54 128.572 606.921 128.555H639.542C640.268 128.522 640.952 128.21 641.454 127.684C641.955 127.158 642.235 126.459 642.235 125.732C642.235 125.004 641.955 124.305 641.454 123.779C640.952 123.253 640.268 122.942 639.542 122.908H645.179C645.56 122.926 645.941 122.866 646.298 122.732C646.655 122.598 646.981 122.392 647.257 122.129C647.532 121.865 647.752 121.548 647.902 121.196C648.052 120.845 648.129 120.467 648.129 120.085C648.129 119.703 648.052 119.325 647.902 118.974C647.752 118.623 647.532 118.306 647.257 118.042C646.981 117.778 646.655 117.573 646.298 117.439C645.941 117.305 645.56 117.245 645.179 117.262Z" fill="#252223"/>
<path d="M421.884 443.264H422.012C422.012 443.264 401.473 386.723 395.719 379.06C395.719 379.06 389.696 375.495 389.971 369.462L382.578 333.531C382.578 333.531 382.689 333.42 382.876 333.215L383.035 333.039L383.216 332.828C384.202 331.655 385.026 330.355 385.669 328.964L385.786 328.694C386.061 328.064 386.291 327.415 386.476 326.753C386.731 326.845 387.002 326.885 387.272 326.87C387.542 326.856 387.807 326.789 388.051 326.671C388.051 326.671 388.051 326.478 388.051 326.132C388.051 326.132 387.981 324.003 387.975 320.673C387.975 319.746 387.975 318.738 387.975 317.665C388.203 316.838 388.396 315.97 388.56 315.044L388.262 314.903V314.769L388.01 314.651C388.215 306.765 388.882 296.686 390.808 289.82C390.874 289.578 390.944 289.337 391.019 289.099C393.296 281.6 393.36 272.447 393.945 264.707C394.4 265.68 394.791 266.681 395.116 267.704C395.404 267.378 395.737 267.096 396.105 266.865L398.4 285.258V306.953C398.4 306.953 394.566 334.933 406.594 329.72C418.623 324.508 409.878 305.305 409.878 305.305C409.878 305.305 409.878 294.61 411.523 289.122C412.606 285.51 411.909 273.831 411.301 266.255C412.471 266.461 413.162 266.625 413.162 266.625C413.428 265.525 413.548 264.396 413.519 263.265C413.771 250.618 398.201 230.243 391.861 222.468C390.055 219.692 387.527 217.463 384.551 216.018L372.37 210.108C372.37 210.108 366.616 208.701 364.374 204.245C364.374 204.168 364.333 204.092 364.315 204.016C364.569 203.903 364.819 203.779 365.065 203.647C366.925 202.75 368.555 201.438 369.829 199.812C372.422 196.511 373.663 192.377 374.846 188.349C376.239 183.612 377.644 178.774 377.456 173.837C377.269 168.9 375.197 163.77 371.017 161.149C367.447 158.909 362.466 158.487 360.247 154.899C359.662 153.931 359.287 152.782 358.491 152.002C358.5 151.841 358.45 151.683 358.351 151.555C358.252 151.428 358.111 151.341 357.953 151.31L351.818 150.103C351.732 150.086 351.644 150.086 351.558 150.103C351.471 150.12 351.39 150.154 351.317 150.203C351.244 150.252 351.181 150.315 351.133 150.389C351.084 150.462 351.051 150.544 351.034 150.63V150.718C345.548 150.871 340.164 152.24 335.271 154.729C333.532 155.57 331.865 156.55 330.284 157.66C328.03 159.255 325.812 161.372 325.49 164.11C325.332 165.476 325.659 166.878 325.384 168.214C324.641 171.797 319.847 174.131 320.549 177.725C321.024 180.164 323.781 181.213 326.362 181.243C325.644 183.814 325.461 186.506 325.825 189.151C326.189 191.796 327.092 194.338 328.478 196.619C329.864 198.9 331.703 200.871 333.882 202.41C336.06 203.948 338.532 205.022 341.142 205.564C343.019 208.211 344.664 211.017 346.059 213.948C342.904 216.95 336.295 223.916 340.346 226.261L331.917 247.123L332.736 268.624L329.183 271.802L329.962 272.775C325.981 277.419 316.768 287.569 310.031 290.271C309.061 290.661 308.122 291.124 307.221 291.655C305.991 292.438 304.622 292.975 303.188 293.238C302.563 293.307 301.944 293.428 301.339 293.602L299.729 290.26C299.592 289.975 299.4 289.72 299.165 289.51C298.929 289.299 298.655 289.138 298.357 289.034C298.059 288.93 297.743 288.885 297.428 288.904C297.114 288.922 296.805 289.002 296.521 289.14L295.532 289.615L293.191 290.746L292.213 291.221L291.476 291.579C290.903 291.856 290.464 292.35 290.254 292.951C290.045 293.552 290.082 294.212 290.358 294.786L292.307 298.832C289.538 301.277 288.18 304.197 291.956 306.918C293.405 307.981 295.164 308.537 296.96 308.501L298.131 310.957C298.268 311.242 298.46 311.497 298.695 311.707C298.93 311.918 299.205 312.08 299.503 312.184C299.801 312.288 300.116 312.332 300.431 312.313C300.746 312.295 301.055 312.215 301.339 312.077L303.054 311.245L306.378 309.638C306.663 309.501 306.917 309.309 307.127 309.073C307.337 308.837 307.499 308.562 307.602 308.264C307.706 307.965 307.75 307.649 307.732 307.334C307.714 307.018 307.634 306.709 307.496 306.425L306.525 304.402C308.7 302.709 310.693 300.793 312.472 298.685C312.472 298.685 317.471 295.548 320.415 294.845C322.364 294.382 329.195 289.885 333.433 287.035L334.639 318.697C334.373 319.109 334.063 319.49 333.714 319.834L334.656 319.166V319.401C334.53 319.553 334.395 319.698 334.252 319.834L334.662 319.541V319.922C334.529 320.083 334.386 320.236 334.235 320.38L334.668 320.075L334.843 323.399L336.904 319.975L337.033 323.399L337.513 322.602C331.729 332.446 324.196 346.941 320.169 361.523C320.169 361.523 313.871 372.493 314.69 383.739L303.188 439.441L303.411 439.523C299.664 442.232 291.768 447.198 284.024 447.397C284.024 447.397 265.405 446.846 270.608 450.962C275.812 455.078 322.089 461.112 322.089 461.112L323.845 447.245L324.255 447.397C324.255 447.397 324.255 447.321 324.255 447.18L324.84 447.397C324.84 447.397 323.722 440.502 327.819 436.661C331.917 432.821 341.51 393.859 340.697 387.837C340.697 387.837 348.049 369.432 357.25 354.756L368.067 382.619L380.114 403.463C380.114 403.463 396.14 439.159 395.625 447.11C392.259 451.214 386.26 457.664 381.758 457.494C381.758 457.494 363.414 461.059 376.01 464.354C388.607 467.649 425.571 455.324 425.571 455.324L421.884 443.264ZM341.692 315.642L341.803 315.578C341.218 316.463 340.632 317.442 339.965 318.509L341.692 315.642Z" fill="url(#paint0_linear)"/>
<path d="M333.714 319.846C333.263 320.175 333.017 320.356 333.017 320.356C333.273 320.221 333.508 320.049 333.714 319.846Z" fill="url(#paint1_linear)"/>
<path d="M334.258 320.397C333.807 320.726 333.562 320.907 333.562 320.907C333.817 320.772 334.052 320.6 334.258 320.397Z" fill="url(#paint2_linear)"/>
<path d="M334.258 319.846C333.807 320.175 333.562 320.356 333.562 320.356C333.817 320.221 334.052 320.049 334.258 319.846Z" fill="url(#paint3_linear)"/>
<path d="M396.919 440.373C396.919 440.373 387.308 454.011 380.898 453.741C380.898 453.741 363.01 457.218 375.29 460.425C387.571 463.633 423.61 451.601 423.61 451.601L419.326 437.617L396.919 440.373Z" fill="#333333"/>
<path d="M353.937 345.68L367.552 380.713L379.329 401.065C379.329 401.065 395.479 437.031 394.414 443.985L420.169 439.839C420.169 439.839 400.144 384.724 394.542 377.266C394.542 377.266 388.689 373.789 388.935 367.884L381.729 332.851C381.729 332.851 388.753 326.073 384.82 317.606C384.621 317.172 384.391 316.735 384.129 316.293C378.744 307.199 358.479 312.259 358.479 312.259L353.937 345.68Z" fill="#535461"/>
<path opacity="0.03" d="M353.937 345.68L367.552 380.713L379.329 401.065C379.329 401.065 395.479 437.031 394.414 443.985L420.169 439.839C420.169 439.839 400.144 384.724 394.542 377.266C394.542 377.266 388.689 373.789 388.935 367.884L381.729 332.851C381.729 332.851 388.753 326.073 384.82 317.606C384.621 317.172 384.391 316.735 384.129 316.293C378.744 307.199 358.479 312.259 358.479 312.259L353.937 345.68Z" fill="black"/>
<g opacity="0.1">
<path opacity="0.1" d="M394.519 377.266C394.519 377.266 388.665 373.789 388.911 367.884L381.706 332.851C381.706 332.851 388.73 326.073 384.796 317.606C384.597 317.172 384.367 316.735 384.106 316.293C381.518 311.884 375.408 310.805 369.806 310.869C375.179 310.916 380.834 312.095 383.304 316.293C383.565 316.735 383.795 317.172 383.994 317.606C387.91 326.096 380.904 332.851 380.904 332.851L388.109 367.902C387.84 373.765 393.717 377.283 393.717 377.283C399.325 384.771 419.343 439.857 419.343 439.857L394.396 443.873C394.396 443.914 394.396 443.961 394.396 444.002L420.151 439.857C420.151 439.857 400.126 384.753 394.519 377.266Z" fill="black"/>
</g>
<path d="M306.689 434.492C306.689 434.492 296.012 443.586 285.616 443.873C285.616 443.873 267.471 443.34 272.534 447.35C277.597 451.361 322.721 457.248 322.721 457.248L324.729 441.598L306.689 434.492Z" fill="#333333"/>
<g opacity="0.1">
<path opacity="0.1" d="M345.93 310.142C345.93 310.142 328.311 335.015 321.346 360.151C321.346 360.151 315.205 370.845 316.007 381.81L304.816 436.099L325.373 443.856C325.373 443.856 324.307 437.172 328.299 433.425C332.291 429.678 341.645 391.707 340.849 385.826C340.849 385.826 353.662 353.736 366.475 341.165C379.288 328.594 385.669 325.698 387.547 314.845C387.559 314.845 357.408 300.245 345.93 310.142Z" fill="black"/>
</g>
<path d="M345.38 310.142C345.38 310.142 327.761 335.015 320.795 360.151C320.795 360.151 314.655 370.845 315.457 381.81L304.242 436.099L324.799 443.856C324.799 443.856 323.734 437.172 327.726 433.425C331.718 429.678 341.071 391.707 340.275 385.826C340.275 385.826 353.088 353.736 365.902 341.165C378.715 328.594 385.095 325.698 386.974 314.845C387.027 314.845 356.876 300.245 345.38 310.142Z" fill="#535461"/>
<g opacity="0.1">
<path opacity="0.1" d="M356.776 306.437C370.011 306.595 386.494 314.575 386.494 314.575C384.609 325.428 378.235 328.325 365.422 340.896C352.609 353.467 339.79 385.551 339.79 385.551C340.591 391.414 331.249 429.408 327.24 433.149C323.728 436.409 324.114 441.891 324.261 443.264L325.103 443.58C325.103 443.58 324.038 436.896 328.03 433.149C332.022 429.403 341.393 391.414 340.591 385.551C340.591 385.551 353.405 353.461 366.218 340.89C379.031 328.319 385.411 325.422 387.29 314.569C387.296 314.604 370.134 306.273 356.776 306.437Z" fill="black"/>
</g>
<path d="M332.315 271.368C332.315 271.368 319.572 287.264 310.973 290.717C310.028 291.097 309.112 291.548 308.234 292.066C307.034 292.828 305.698 293.352 304.3 293.608C303.272 293.708 302.266 293.973 301.321 294.393C296.849 296.457 286.535 302.016 293.343 306.941C301.883 313.092 313.367 298.92 313.367 298.92C313.367 298.92 318.243 295.859 321.111 295.173C323.98 294.487 337.12 285.288 337.12 285.288L332.315 271.368Z" fill="#FDA57D"/>
<path d="M334.715 268.155L329.646 272.705L337.12 282.063L334.715 268.155Z" fill="#4D8AF0"/>
<g opacity="0.1">
<path opacity="0.1" d="M334.715 268.155L329.646 272.705L337.12 282.063L334.715 268.155Z" fill="black"/>
</g>
<path d="M347.569 214.928C347.569 214.928 335.417 225.358 340.504 228.296L332.309 248.618L335.136 322.96L346.72 303.704L338.806 261.987C338.806 261.987 336.547 237.114 343.044 231.234L349.26 218.921L347.569 214.928Z" fill="#4D8AF0"/>
<g opacity="0.1">
<path opacity="0.1" d="M349.705 214.928C349.705 214.928 337.554 225.358 342.64 228.296L334.445 248.618L337.273 322.96L348.857 303.704L340.943 261.987C340.943 261.987 338.683 237.114 345.181 231.234L351.397 218.921L349.705 214.928Z" fill="black"/>
</g>
<path d="M338.186 203.975C338.186 203.975 348.066 216.006 347.797 222.96C347.528 229.914 366.487 210.929 366.487 210.929C366.487 210.929 359.281 202.105 361.149 192.752C363.016 183.4 338.186 203.975 338.186 203.975Z" fill="#FDA57D"/>
<path d="M394.519 264.414L397.188 285.81V306.918C397.188 306.918 393.448 334.194 405.196 329.116C416.943 324.038 408.397 305.317 408.397 305.317C408.397 305.317 408.397 294.886 410.001 289.539C411.605 284.191 409.182 260.662 409.182 260.662L394.519 264.414Z" fill="#FDA57D"/>
<path d="M357.941 213.872C357.941 213.872 350.735 220.826 346.995 218.416L341.868 231.181C338.734 238.983 337.312 247.37 337.7 255.772L339.526 303.992L347.534 302.925L350.203 257.191L354.207 229.381L357.941 213.872Z" fill="#F2F2F2"/>
<g opacity="0.1">
<path opacity="0.1" d="M363.952 206.52C363.952 206.52 354.47 213.069 351.818 218.686C351.818 218.686 351.549 224.837 349.418 227.51C347.288 230.184 345.145 243.558 344.613 259.6C344.08 275.642 341.686 297.038 341.686 297.038C341.686 297.038 337.682 317.894 333.409 320.034C333.409 320.034 353.165 305.059 362.776 310.136C372.387 315.214 383.333 327.521 386.535 325.645C386.535 325.645 385.762 302.192 389.268 289.709C389.335 289.47 389.403 289.238 389.473 289.011C393.214 276.698 390.808 259.864 395.081 252.658C395.081 252.658 395.081 239.589 392.617 229.826C391.979 227.334 390.806 225.011 389.178 223.021C387.55 221.03 385.507 219.421 383.193 218.305L371.322 212.547C371.322 212.547 365.018 211.597 363.952 206.52Z" fill="black"/>
</g>
<g opacity="0.1">
<path opacity="0.1" d="M363.952 206.52C363.952 206.52 355.008 213.608 352.339 219.22C352.339 219.22 352.07 225.37 349.939 228.044C347.809 230.718 345.666 244.092 345.134 260.134C344.601 276.176 342.207 297.571 342.207 297.571C342.207 297.571 338.203 318.427 333.93 320.567C333.93 320.567 353.686 305.592 363.297 310.67C372.908 315.748 383.854 328.055 387.056 326.179C387.056 326.179 386.283 302.725 389.789 290.242C389.856 290.004 389.924 289.771 389.994 289.544C393.735 277.231 391.329 260.398 395.602 253.192C395.602 253.192 395.602 240.122 393.138 230.36C392.5 227.867 391.327 225.544 389.699 223.554C388.071 221.564 386.028 219.954 383.714 218.838L371.843 213.081C371.843 213.081 365.018 211.597 363.952 206.52Z" fill="black"/>
</g>
<path d="M363.818 206.385C363.818 206.385 355.008 213.069 352.339 218.698C352.339 218.698 352.07 224.848 349.939 227.522C347.809 230.196 345.666 243.57 345.134 259.612C344.601 275.654 342.207 297.049 342.207 297.049C342.207 297.049 338.203 317.905 333.93 320.046C333.93 320.046 353.686 305.071 363.297 310.148C372.908 315.226 383.836 327.504 387.044 325.651C387.044 325.651 386.271 302.198 389.778 289.714C389.844 289.476 389.912 289.243 389.983 289.017C393.723 276.704 391.317 259.87 395.59 252.664C395.59 252.664 395.59 239.595 393.126 229.832C392.489 227.34 391.315 225.017 389.687 223.026C388.059 221.036 386.016 219.427 383.702 218.311L371.831 212.553C371.831 212.553 365.82 211.064 363.818 206.385Z" fill="#4D8AF0"/>
<g opacity="0.1">
<path opacity="0.1" d="M388.244 222.028C388.244 222.028 415.339 252.916 411.605 267.621C411.605 267.621 397.721 264.414 393.986 268.689C393.986 268.689 391.06 258.791 382.238 253.18C373.417 247.569 365.281 211.597 388.244 222.028Z" fill="black"/>
</g>
<path d="M388.244 221.495C388.244 221.495 415.339 252.383 411.605 267.088C411.605 267.088 397.721 263.881 393.986 268.155C393.986 268.155 391.06 258.258 382.238 252.646C373.417 247.035 365.281 211.064 388.244 221.495Z" fill="#4D8AF0"/>
<g opacity="0.1">
<path opacity="0.1" d="M361.816 198.762C361.395 196.605 361.746 196.417 362.214 194.072C364.081 184.69 339.257 205.306 339.257 205.306C339.257 205.306 340.638 206.989 342.353 209.463C343.619 209.724 344.907 209.856 346.199 209.856C352.989 209.862 358.462 204.122 361.816 198.762Z" fill="black"/>
</g>
<path d="M345.128 208.519C355.596 208.519 364.081 200.019 364.081 189.534C364.081 179.048 355.596 170.548 345.128 170.548C334.66 170.548 326.175 179.048 326.175 189.534C326.175 200.019 334.66 208.519 345.128 208.519Z" fill="#FDA57D"/>
<g opacity="0.1">
<path opacity="0.1" d="M328.1 184.339C325.308 184.714 321.749 183.752 321.211 181.014C320.532 177.496 325.203 175.239 325.929 171.744C326.198 170.431 325.876 169.065 326.034 167.74C326.35 165.06 328.51 163.002 330.717 161.442C337.681 156.55 346.151 154.289 354.622 155.063C355.68 155.076 356.711 155.403 357.584 156.001C358.503 156.757 358.86 157.989 359.486 159.003C361.652 162.521 366.51 162.914 369.987 165.095C374.085 167.646 376.081 172.653 376.262 177.461C376.444 182.269 375.091 186.989 373.716 191.609C372.545 195.538 371.375 199.572 368.822 202.785C366.27 205.998 362.097 208.249 358.122 207.282C359.943 205.968 358.62 202.92 356.647 201.847C354.675 200.774 352.228 200.592 350.542 199.114C348.857 197.637 348.353 195.221 347.803 193.022C347.112 190.249 346.105 187.434 344.086 185.4C340.112 181.442 332.965 183.682 328.1 184.339Z" fill="black"/>
</g>
<path d="M328.633 184.075C325.841 184.45 322.282 183.488 321.744 180.75C321.065 177.232 325.736 174.975 326.461 171.48C326.731 170.167 326.409 168.801 326.567 167.476C326.883 164.796 329.043 162.738 331.249 161.178C338.213 156.286 346.684 154.025 355.155 154.799C356.213 154.813 357.243 155.139 358.117 155.737C359.036 156.494 359.393 157.725 360.019 158.739C362.185 162.257 367.043 162.65 370.52 164.831C374.617 167.382 376.613 172.389 376.795 177.197C376.976 182.005 375.624 186.725 374.249 191.345C373.078 195.274 371.907 199.308 369.355 202.521C366.803 205.734 362.63 207.985 358.655 207.018C360.476 205.705 359.153 202.656 357.18 201.583C355.207 200.51 352.761 200.328 351.075 198.85C349.389 197.373 348.892 194.957 348.306 192.758C347.616 189.985 346.609 187.171 344.589 185.136C340.65 181.172 333.497 183.418 328.633 184.075Z" fill="#72351C"/>
<path d="M356.571 164.808L358.286 156.013C358.303 155.928 358.303 155.842 358.287 155.757C358.27 155.673 358.237 155.593 358.189 155.521C358.141 155.45 358.079 155.388 358.008 155.341C357.936 155.294 357.856 155.261 357.771 155.245L351.713 154.072C351.629 154.055 351.542 154.055 351.458 154.072C351.373 154.088 351.293 154.122 351.222 154.17C351.151 154.218 351.09 154.279 351.042 154.351C350.995 154.423 350.962 154.504 350.946 154.588L349.231 163.383L343.378 185.124L354.119 187.223L356.571 164.808Z" fill="#CBDAE3"/>
<g opacity="0.1">
<path opacity="0.1" d="M347.662 199.296C352.822 199.296 357.004 195.106 357.004 189.938C357.004 184.77 352.822 180.58 347.662 180.58C342.503 180.58 338.32 184.77 338.32 189.938C338.32 195.106 342.503 199.296 347.662 199.296Z" fill="black"/>
</g>
<path d="M347.662 199.56C352.822 199.56 357.004 195.37 357.004 190.202C357.004 185.034 352.822 180.844 347.662 180.844C342.503 180.844 338.32 185.034 338.32 190.202C338.32 195.37 342.503 199.56 347.662 199.56Z" fill="#CBDAE3"/>
<path d="M347.662 196.335C351.044 196.335 353.785 193.589 353.785 190.202C353.785 186.815 351.044 184.069 347.662 184.069C344.281 184.069 341.54 186.815 341.54 190.202C341.54 193.589 344.281 196.335 347.662 196.335Z" fill="#E9E9E9"/>
<path d="M347.662 192.072C348.694 192.072 349.53 191.235 349.53 190.202C349.53 189.169 348.694 188.332 347.662 188.332C346.631 188.332 345.795 189.169 345.795 190.202C345.795 191.235 346.631 192.072 347.662 192.072Z" fill="#F48681"/>
<path opacity="0.05" d="M356.727 164.01L349.391 162.575L349.339 162.839L356.675 164.274L356.727 164.01Z" fill="black"/>
<path d="M294.849 291.045L294.843 291.048C292.587 292.137 291.639 294.854 292.727 297.114L298.411 308.924C299.499 311.184 302.211 312.133 304.468 311.043L304.473 311.041C306.73 309.951 307.677 307.235 306.589 304.974L300.905 293.165C299.817 290.904 297.105 289.955 294.849 291.045Z" fill="#CBDAE3"/>
<g opacity="0.1">
<path opacity="0.1" d="M294.849 291.045L294.843 291.048C292.587 292.137 291.639 294.854 292.727 297.114L298.411 308.924C299.499 311.184 302.211 312.133 304.468 311.043L304.473 311.041C306.73 309.951 307.677 307.235 306.589 304.974L300.905 293.165C299.817 290.904 297.105 289.955 294.849 291.045Z" fill="black"/>
</g>
<path d="M301.924 292.822C300.804 290.494 298.012 289.517 295.688 290.639C293.364 291.762 292.389 294.558 293.509 296.886L299.076 308.453C300.197 310.78 302.989 311.758 305.312 310.635C307.636 309.513 308.612 306.716 307.491 304.389L301.924 292.822Z" fill="#CBDAE3"/>
<path d="M299.557 290.551L293.198 293.622L300.501 308.796L306.86 305.725L299.557 290.551Z" fill="#F2F2F2"/>
<path d="M305.079 309.852C305.478 309.66 305.594 309.073 305.339 308.542C305.083 308.011 304.553 307.737 304.154 307.93C303.755 308.122 303.638 308.709 303.894 309.24C304.15 309.771 304.68 310.045 305.079 309.852Z" fill="#F2F2F2"/>
<path d="M399.41 135.853C398.796 137.54 396.589 138.285 394.481 137.518C392.374 136.751 391.161 134.761 391.775 133.074C392.389 131.387 394.597 130.643 396.704 131.41C398.812 132.177 400.024 134.166 399.41 135.853Z" fill="#AAC4E1"/>
<path fill-rule="evenodd" clip-rule="evenodd" d="M404.968 120.583L399.41 135.853L397.883 135.297L403.441 120.027L404.968 120.583Z" fill="#AAC4E1"/>
<path d="M403.541 119.752C403.67 119.4 403.917 119.102 404.24 118.911C404.563 118.72 404.942 118.646 405.314 118.703L410.228 119.454C410.466 119.49 410.692 119.579 410.891 119.713C411.091 119.848 411.257 120.025 411.38 120.231C411.503 120.438 411.578 120.669 411.6 120.909C411.623 121.148 411.592 121.389 411.51 121.615L410.52 124.333L402.33 123.081L403.541 119.752Z" fill="#AAC4E1"/>
<path opacity="0.1" d="M460.169 103.103C410.779 99.9686 364.143 81.5999 319.672 61.6681C275.202 41.7362 231.205 19.807 183.249 8.60968C152.38 1.40546 116.915 -0.432565 91.4378 16.7813C66.8866 33.3775 58.334 62.8253 53.4575 90.2526C49.7676 110.895 47.348 132.655 55.4565 152.277C61.0849 165.904 71.414 177.499 78.4247 190.589C91.4378 253.5 83.2934 291.026 54.4402 334.125C40.9161 354.341 25.3238 373.556 14.7211 395.179C4.11839 416.802 -1.19789 441.757 6.97138 464.314C15.0843 486.687 35.3734 503.831 57.5184 516.072C102.492 541.006 156.022 549.217 208.331 554.407C324.079 565.966 440.772 565.331 557.153 564.68C600.218 564.44 643.482 564.182 686.003 558.12C709.619 554.765 734.052 549.101 751.515 534.344C773.691 515.615 779.917 483.072 766.03 458.493C742.74 417.261 691.474 398.511 675.573 354.5C666.835 330.277 690.159 288.88 704.361 267C734.813 220.054 756.085 201.319 760.087 146.849C762.839 109.478 740.287 71.3221 704.361 52.6455C666.7 33.0677 613.748 34.0194 584.817 64.0339C555.019 95.0649 503.773 105.881 460.169 103.103Z" fill="#175CAE"/>
<g clip-path="url(#clip0)">
<path d="M488.114 72.2431C487.369 74.4699 484.508 75.5183 481.727 74.5878C478.946 73.6573 477.293 71.0985 478.038 68.8717C478.782 66.647 481.644 65.5965 484.425 66.527C487.205 67.4575 488.858 70.0183 488.114 72.2431ZM507.599 74.2812C506.854 76.5079 503.994 77.5564 501.213 76.6259C498.432 75.6954 496.778 73.1366 497.523 70.9098C498.268 68.683 501.129 67.6346 503.91 68.5651C506.691 69.4956 508.344 72.0544 507.599 74.2812Z" fill="#8DB6E3"/>
<path fill-rule="evenodd" clip-rule="evenodd" d="M505.584 73.6069L511.652 55.4702L513.668 56.1445L507.599 74.2811L505.584 73.6069ZM494.857 52.0912L488.114 72.2431L486.099 71.5688L492.841 51.4169L494.857 52.0912Z" fill="#8DB6E3"/>
<path d="M492.906 51.2255C493.073 50.7259 493.419 50.3062 493.879 50.0478C494.338 49.7895 494.876 49.7109 495.39 49.8272L512.051 53.6092C512.341 53.6748 512.613 53.8004 512.851 53.9779C513.09 54.1554 513.288 54.3808 513.434 54.6396C513.579 54.8984 513.669 55.1849 513.697 55.4805C513.725 55.7762 513.691 56.0744 513.597 56.3561L512.993 58.1596L492.167 53.4321L492.906 51.2255Z" fill="#8DB6E3"/>
</g>
<defs>
<linearGradient id="paint0_linear" x1="269.666" y1="307.51" x2="425.571" y2="307.51" gradientUnits="userSpaceOnUse">
<stop stop-color="#808080" stop-opacity="0.25"/>
<stop offset="0.54" stop-color="#808080" stop-opacity="0.12"/>
<stop offset="1" stop-color="#808080" stop-opacity="0.1"/>
</linearGradient>
<linearGradient id="paint1_linear" x1="694.442" y1="557.747" x2="695.271" y2="557.747" gradientUnits="userSpaceOnUse">
<stop stop-color="#808080" stop-opacity="0.25"/>
<stop offset="0.54" stop-color="#808080" stop-opacity="0.12"/>
<stop offset="1" stop-color="#808080" stop-opacity="0.1"/>
</linearGradient>
<linearGradient id="paint2_linear" x1="695.634" y1="558.773" x2="696.47" y2="558.773" gradientUnits="userSpaceOnUse">
<stop stop-color="#808080" stop-opacity="0.25"/>
<stop offset="0.54" stop-color="#808080" stop-opacity="0.12"/>
<stop offset="1" stop-color="#808080" stop-opacity="0.1"/>
</linearGradient>
<linearGradient id="paint3_linear" x1="695.634" y1="557.747" x2="696.47" y2="557.747" gradientUnits="userSpaceOnUse">
<stop stop-color="#808080" stop-opacity="0.25"/>
<stop offset="0.54" stop-color="#808080" stop-opacity="0.12"/>
<stop offset="1" stop-color="#808080" stop-opacity="0.1"/>
</linearGradient>
<clipPath id="clip0">
<rect width="34" height="34" fill="white" transform="translate(484.788 42) rotate(18.5)"/>
</clipPath>
</defs>
</svg>
