<svg width="469" height="329" viewBox="0 0 469 329" fill="none" xmlns="http://www.w3.org/2000/svg">
<path opacity="0.1" d="M269.589 -136.17C253.994 -183.138 253.555 -233.259 255.377 -281.958C257.198 -330.657 261.049 -379.665 253.467 -428.323C248.583 -459.643 237.001 -493.215 211.497 -510.388C186.912 -526.935 156.405 -523.833 129.148 -518.08C108.626 -513.769 87.5438 -507.86 72.3885 -492.992C61.8623 -482.669 54.9808 -468.748 45.4702 -457.344C-7.98492 -421.712 -45.8292 -415.206 -96.5982 -425.813C-120.409 -430.779 -144.066 -438.038 -168.086 -439.769C-192.106 -441.499 -217.236 -437.08 -235.09 -421.055C-252.795 -405.152 -261.09 -379.918 -264.143 -354.8C-270.415 -303.761 -257.975 -251.053 -243.192 -200.609C-210.55 -88.9594 -166.247 18.9992 -122.046 126.662C-105.691 166.501 -89.2451 206.517 -67.6959 243.672C-55.7384 264.311 -41.3336 284.843 -21.1095 295.507C4.56329 309.052 37.0683 302.634 54.6555 280.55C84.1607 243.511 82.3408 188.954 117.19 157.724C136.376 140.549 183.496 146.666 209.103 151.637C264.038 162.286 289.377 174.991 341.381 158.297C377.061 146.849 403.991 111.646 407.849 71.3388C411.893 29.086 391.175 -19.6533 352.508 -35.234C312.574 -51.2382 283.349 -94.7005 269.589 -136.17Z" fill="#175CAE"/>
</svg>
