<svg width="217" height="638" viewBox="0 0 217 638" fill="none" xmlns="http://www.w3.org/2000/svg">
<path opacity="0.1" d="M17.5892 451.83C1.9942 404.862 1.55503 354.741 3.37668 306.042C5.19834 257.343 9.04896 208.335 1.4665 159.677C-3.41748 128.357 -14.9989 94.7852 -40.5032 77.6117C-65.088 61.0653 -95.5953 64.1667 -122.852 69.9197C-143.374 74.2313 -164.456 80.1395 -179.612 95.008C-190.138 105.331 -197.019 119.252 -206.53 130.656C-259.985 166.288 -297.829 172.794 -348.598 162.187C-372.409 157.221 -396.066 149.962 -420.086 148.231C-444.106 146.501 -469.236 150.92 -487.09 166.945C-504.795 182.848 -513.09 208.082 -516.143 233.2C-522.415 284.239 -509.975 336.947 -495.192 387.391C-462.55 499.041 -418.247 606.999 -374.046 714.662C-357.691 754.501 -341.245 794.517 -319.696 831.672C-307.738 852.311 -293.334 872.843 -273.11 883.507C-247.437 897.052 -214.932 890.634 -197.344 868.55C-167.839 831.511 -169.659 776.954 -134.81 745.724C-115.624 728.549 -68.504 734.666 -42.897 739.637C12.0384 750.286 37.3772 762.991 89.3806 746.297C125.061 734.849 151.991 699.646 155.849 659.339C159.893 617.086 139.175 568.347 100.508 552.766C60.5739 536.762 31.3489 493.3 17.5892 451.83Z" fill="#175CAE"/>
</svg>
