<svg width="415" height="205" viewBox="0 0 415 205" fill="none" xmlns="http://www.w3.org/2000/svg">
<path opacity="0.1" d="M460.169 -266.897C410.779 -270.031 364.143 -288.4 319.672 -308.332C275.202 -328.264 231.205 -350.193 183.249 -361.39C152.38 -368.595 116.915 -370.433 91.4378 -353.219C66.8866 -336.623 58.334 -307.175 53.4575 -279.747C49.7676 -259.105 47.348 -237.345 55.4565 -217.723C61.0849 -204.096 71.414 -192.501 78.4247 -179.411C91.4378 -116.5 83.2934 -78.9742 54.4402 -35.8755C40.9161 -15.6588 25.3238 3.55613 14.7211 25.1789C4.11839 46.8016 -1.19789 71.7569 6.97138 94.3144C15.0843 116.687 35.3734 133.831 57.5184 146.072C102.492 171.007 156.022 179.217 208.331 184.407C324.079 195.966 440.772 195.331 557.153 194.68C600.218 194.44 643.482 194.182 686.003 188.12C709.619 184.765 734.052 179.101 751.515 164.344C773.691 145.615 779.917 113.072 766.03 88.4929C742.74 47.2611 691.474 28.5108 675.573 -15.5C666.836 -39.7229 690.159 -81.12 704.361 -103C734.813 -149.946 756.085 -168.681 760.087 -223.151C762.839 -260.522 740.287 -298.678 704.361 -317.355C666.7 -336.932 613.748 -335.981 584.817 -305.966C555.019 -274.935 503.773 -264.119 460.169 -266.897Z" fill="#175CAE"/>
</svg>
